<svg id="Layer_1" data-name="Layer 1" xmlns="http://www.w3.org/2000/svg" viewBox="0 0 366.56 512"><defs><style>.cls-1{fill:#fff;}</style></defs><path class="cls-1" d="M409.92,30.55l-3.41,170.14c-.94,47.2-11.1,89.59-31.08,129.58-19.08,38.12-46.71,73.45-84.49,107.77l-.29.24-.26.26L257.8,469.67l-32.58-31.13-.27-.26-.28-.24c-37.78-34.37-65.42-69.65-84.49-107.82-20-40-30.14-82.38-31.1-129.52L105.69,30.55H409.93M441.09,0H74.53l4,201.3c2.1,105.5,47.52,188.38,125.57,259.38L257.81,512l53.69-51.32c78.05-71,123.41-153.88,125.57-259.38l4-201.3Z" transform="translate(-74.53)"/><polygon class="cls-1" points="64.22 297.16 158.79 87 207.77 87 302.34 297.16 252.95 297.16 183.17 142.06 132.52 254.08 197.26 254.08 177.92 297.16 64.22 297.16"/></svg>